# xmcd
#
# Track frame offsets: 
#        183
#        22713
#        35590
#        45578
#        59228
#        72460
#        81555
#        94235
#        105705
#        119163
#        131808
#        141875
#        160808
#        176838
#        185658
#        199203
#
# Disc length: 2805 seconds
#
# Revision: 1
# Processed by: cddbd v1.5.2PL0 Copyright (c) Steve Scherf et al.
# Submitted via: ExactAudioCopy v0.99pb4
#
DISCID=fa0af310
DTITLE=Ray Charles - BEST ARTIST COLLECTION - Ray Charles
DYEAR=1900
DGENRE=Blues
TTITLE0=What'd I Say
TTITLE1=I've Got A Woman
TTITLE2=Yes Indeed!
TTITLE3=Chattanooga Choo Choo
TTITLE4=Blue Hawaii
TTITLE5=Carry Me Back To Old Virginny
TTITLE6=Unchain My Heart
TTITLE7=Lonely Avenue
TTITLE8=I Believe To My Soul
TTITLE9=Let The Good Times Roll
TTITLE10=It's Alright
TTITLE11=I Can't Stop Loving You
TTITLE12=Georgia On My Mind
TTITLE13=Hit The Road Jack
TTITLE14=A Fool For You
TTITLE15=Hallelujah I Love Her So
EXTD=
EXTT0=
EXTT1=
EXTT2=
EXTT3=
EXTT4=
EXTT5=
EXTT6=
EXTT7=
EXTT8=
EXTT9=
EXTT10=
EXTT11=
EXTT12=
EXTT13=
EXTT14=
EXTT15=
PLAYORDER=
